<mxfile host="app.diagrams.net" modified="2023-12-22T16:27:14.450Z" agent="Mozilla/5.0 (Windows NT 10.0; Win64; x64) AppleWebKit/537.36 (KHTML, like Gecko) Chrome/118.0.5993.771 YaBrowser/23.11.2.771 Yowser/2.5 Safari/537.36" etag="JFn-DmzysribMk_iR4MQ" version="22.1.11" type="device">
  <diagram name="Страница — 1" id="s3S5mJIw4bM_aWZJB_hx">
    <mxGraphModel dx="2422" dy="1820" grid="0" gridSize="10" guides="1" tooltips="1" connect="1" arrows="1" fold="1" page="0" pageScale="1" pageWidth="827" pageHeight="1169" math="0" shadow="0">
      <root>
        <mxCell id="0" />
        <mxCell id="1" parent="0" />
        <mxCell id="KAjtmMF-kqCktcbZ_CeA-5" style="edgeStyle=none;curved=1;rounded=0;orthogonalLoop=1;jettySize=auto;html=1;fontSize=12;startSize=8;endSize=8;" edge="1" parent="1" source="KAjtmMF-kqCktcbZ_CeA-1" target="KAjtmMF-kqCktcbZ_CeA-3">
          <mxGeometry relative="1" as="geometry" />
        </mxCell>
        <mxCell id="KAjtmMF-kqCktcbZ_CeA-56" style="edgeStyle=none;curved=1;rounded=0;orthogonalLoop=1;jettySize=auto;html=1;exitX=1;exitY=0.25;exitDx=0;exitDy=0;entryX=0;entryY=0.25;entryDx=0;entryDy=0;fontSize=12;startSize=8;endSize=8;" edge="1" parent="1" source="KAjtmMF-kqCktcbZ_CeA-1" target="KAjtmMF-kqCktcbZ_CeA-55">
          <mxGeometry relative="1" as="geometry" />
        </mxCell>
        <mxCell id="KAjtmMF-kqCktcbZ_CeA-1" value="HomeController.cs" style="rounded=0;whiteSpace=wrap;html=1;fontSize=16;" vertex="1" parent="1">
          <mxGeometry x="-119" y="-585" width="176" height="56" as="geometry" />
        </mxCell>
        <mxCell id="KAjtmMF-kqCktcbZ_CeA-9" value="" style="edgeStyle=none;curved=1;rounded=0;orthogonalLoop=1;jettySize=auto;html=1;fontSize=12;startSize=8;endSize=8;" edge="1" parent="1" source="KAjtmMF-kqCktcbZ_CeA-3">
          <mxGeometry relative="1" as="geometry">
            <mxPoint x="196.01599999999996" y="-244" as="targetPoint" />
          </mxGeometry>
        </mxCell>
        <mxCell id="KAjtmMF-kqCktcbZ_CeA-58" style="edgeStyle=none;curved=1;rounded=0;orthogonalLoop=1;jettySize=auto;html=1;fontSize=12;startSize=8;endSize=8;" edge="1" parent="1" source="KAjtmMF-kqCktcbZ_CeA-3" target="KAjtmMF-kqCktcbZ_CeA-55">
          <mxGeometry relative="1" as="geometry" />
        </mxCell>
        <mxCell id="KAjtmMF-kqCktcbZ_CeA-60" style="edgeStyle=none;curved=1;rounded=0;orthogonalLoop=1;jettySize=auto;html=1;exitX=0;exitY=0.5;exitDx=0;exitDy=0;entryX=1;entryY=0.5;entryDx=0;entryDy=0;fontSize=12;startSize=8;endSize=8;" edge="1" parent="1" source="KAjtmMF-kqCktcbZ_CeA-3" target="KAjtmMF-kqCktcbZ_CeA-32">
          <mxGeometry relative="1" as="geometry" />
        </mxCell>
        <mxCell id="KAjtmMF-kqCktcbZ_CeA-61" style="edgeStyle=none;curved=1;rounded=0;orthogonalLoop=1;jettySize=auto;html=1;exitX=1;exitY=0.5;exitDx=0;exitDy=0;entryX=0;entryY=0.5;entryDx=0;entryDy=0;fontSize=12;startSize=8;endSize=8;" edge="1" parent="1" source="KAjtmMF-kqCktcbZ_CeA-3" target="KAjtmMF-kqCktcbZ_CeA-50">
          <mxGeometry relative="1" as="geometry" />
        </mxCell>
        <mxCell id="KAjtmMF-kqCktcbZ_CeA-3" value="Auth.cshtml" style="rounded=0;whiteSpace=wrap;html=1;fontSize=16;" vertex="1" parent="1">
          <mxGeometry x="92" y="-432" width="176" height="56" as="geometry" />
        </mxCell>
        <mxCell id="KAjtmMF-kqCktcbZ_CeA-14" style="edgeStyle=none;curved=1;rounded=0;orthogonalLoop=1;jettySize=auto;html=1;exitX=0;exitY=0.5;exitDx=0;exitDy=0;fontSize=12;startSize=8;endSize=8;" edge="1" parent="1" source="KAjtmMF-kqCktcbZ_CeA-11" target="KAjtmMF-kqCktcbZ_CeA-12">
          <mxGeometry relative="1" as="geometry" />
        </mxCell>
        <mxCell id="KAjtmMF-kqCktcbZ_CeA-15" style="edgeStyle=none;curved=1;rounded=0;orthogonalLoop=1;jettySize=auto;html=1;entryX=1;entryY=0.5;entryDx=0;entryDy=0;fontSize=12;startSize=8;endSize=8;" edge="1" parent="1" source="KAjtmMF-kqCktcbZ_CeA-11" target="KAjtmMF-kqCktcbZ_CeA-13">
          <mxGeometry relative="1" as="geometry" />
        </mxCell>
        <mxCell id="KAjtmMF-kqCktcbZ_CeA-17" style="edgeStyle=none;curved=1;rounded=0;orthogonalLoop=1;jettySize=auto;html=1;exitX=1;exitY=0.5;exitDx=0;exitDy=0;fontSize=12;startSize=8;endSize=8;" edge="1" parent="1" source="KAjtmMF-kqCktcbZ_CeA-11" target="KAjtmMF-kqCktcbZ_CeA-16">
          <mxGeometry relative="1" as="geometry" />
        </mxCell>
        <mxCell id="KAjtmMF-kqCktcbZ_CeA-11" value="ServiceAdmin.cshtml" style="whiteSpace=wrap;html=1;fontSize=16;" vertex="1" parent="1">
          <mxGeometry x="184" y="-254" width="150" height="58" as="geometry" />
        </mxCell>
        <mxCell id="KAjtmMF-kqCktcbZ_CeA-12" value="AddServiceAdmin.cshtml" style="whiteSpace=wrap;html=1;fontSize=16;" vertex="1" parent="1">
          <mxGeometry x="-86" y="-238" width="217" height="56" as="geometry" />
        </mxCell>
        <mxCell id="KAjtmMF-kqCktcbZ_CeA-13" value="UpdateServiceAdmin.cshtml" style="whiteSpace=wrap;html=1;fontSize=16;" vertex="1" parent="1">
          <mxGeometry x="-84" y="-150" width="217" height="56" as="geometry" />
        </mxCell>
        <mxCell id="KAjtmMF-kqCktcbZ_CeA-20" style="edgeStyle=none;curved=1;rounded=0;orthogonalLoop=1;jettySize=auto;html=1;exitX=0.25;exitY=1;exitDx=0;exitDy=0;entryX=0;entryY=0.75;entryDx=0;entryDy=0;fontSize=12;startSize=8;endSize=8;" edge="1" parent="1" source="KAjtmMF-kqCktcbZ_CeA-16" target="KAjtmMF-kqCktcbZ_CeA-18">
          <mxGeometry relative="1" as="geometry" />
        </mxCell>
        <mxCell id="KAjtmMF-kqCktcbZ_CeA-21" style="edgeStyle=none;curved=1;rounded=0;orthogonalLoop=1;jettySize=auto;html=1;exitX=0.5;exitY=1;exitDx=0;exitDy=0;fontSize=12;startSize=8;endSize=8;" edge="1" parent="1" source="KAjtmMF-kqCktcbZ_CeA-16" target="KAjtmMF-kqCktcbZ_CeA-19">
          <mxGeometry relative="1" as="geometry" />
        </mxCell>
        <mxCell id="KAjtmMF-kqCktcbZ_CeA-16" value="DateAppointmentAdmin.cshtml" style="whiteSpace=wrap;html=1;fontSize=16;" vertex="1" parent="1">
          <mxGeometry x="362" y="-242" width="234" height="58" as="geometry" />
        </mxCell>
        <mxCell id="KAjtmMF-kqCktcbZ_CeA-18" value="AddDateAppointmentAdmin.cshtml" style="whiteSpace=wrap;html=1;fontSize=16;" vertex="1" parent="1">
          <mxGeometry x="530" y="-350" width="254" height="56" as="geometry" />
        </mxCell>
        <mxCell id="KAjtmMF-kqCktcbZ_CeA-19" value="UpdateDateAppointmentAdmin.cshtml" style="whiteSpace=wrap;html=1;fontSize=16;" vertex="1" parent="1">
          <mxGeometry x="485" y="-150" width="274" height="51" as="geometry" />
        </mxCell>
        <mxCell id="KAjtmMF-kqCktcbZ_CeA-29" style="edgeStyle=none;curved=1;rounded=0;orthogonalLoop=1;jettySize=auto;html=1;exitX=0;exitY=0.5;exitDx=0;exitDy=0;fontSize=12;startSize=8;endSize=8;" edge="1" parent="1" source="KAjtmMF-kqCktcbZ_CeA-32" target="KAjtmMF-kqCktcbZ_CeA-33">
          <mxGeometry relative="1" as="geometry" />
        </mxCell>
        <mxCell id="KAjtmMF-kqCktcbZ_CeA-30" style="edgeStyle=none;curved=1;rounded=0;orthogonalLoop=1;jettySize=auto;html=1;entryX=1;entryY=0.5;entryDx=0;entryDy=0;fontSize=12;startSize=8;endSize=8;" edge="1" parent="1" source="KAjtmMF-kqCktcbZ_CeA-32" target="KAjtmMF-kqCktcbZ_CeA-34">
          <mxGeometry relative="1" as="geometry" />
        </mxCell>
        <mxCell id="KAjtmMF-kqCktcbZ_CeA-31" style="edgeStyle=none;curved=1;rounded=0;orthogonalLoop=1;jettySize=auto;html=1;exitX=1;exitY=0.5;exitDx=0;exitDy=0;fontSize=12;startSize=8;endSize=8;" edge="1" parent="1" source="KAjtmMF-kqCktcbZ_CeA-32" target="KAjtmMF-kqCktcbZ_CeA-37">
          <mxGeometry relative="1" as="geometry" />
        </mxCell>
        <mxCell id="KAjtmMF-kqCktcbZ_CeA-32" value="MainPatient.cshtml" style="whiteSpace=wrap;html=1;fontSize=16;" vertex="1" parent="1">
          <mxGeometry x="-443" y="-466" width="150" height="58" as="geometry" />
        </mxCell>
        <mxCell id="KAjtmMF-kqCktcbZ_CeA-33" value="ProfilePatient.cshtml" style="whiteSpace=wrap;html=1;fontSize=16;" vertex="1" parent="1">
          <mxGeometry x="-723" y="-346" width="217" height="56" as="geometry" />
        </mxCell>
        <mxCell id="KAjtmMF-kqCktcbZ_CeA-34" value="CreateApp.cshtml" style="whiteSpace=wrap;html=1;fontSize=16;" vertex="1" parent="1">
          <mxGeometry x="-721" y="-258" width="217" height="56" as="geometry" />
        </mxCell>
        <mxCell id="KAjtmMF-kqCktcbZ_CeA-37" value="Service.cshtml" style="whiteSpace=wrap;html=1;fontSize=16;" vertex="1" parent="1">
          <mxGeometry x="-275" y="-350" width="234" height="58" as="geometry" />
        </mxCell>
        <mxCell id="KAjtmMF-kqCktcbZ_CeA-47" style="edgeStyle=none;curved=1;rounded=0;orthogonalLoop=1;jettySize=auto;html=1;exitX=0;exitY=0.5;exitDx=0;exitDy=0;fontSize=12;startSize=8;endSize=8;" edge="1" parent="1" source="KAjtmMF-kqCktcbZ_CeA-50" target="KAjtmMF-kqCktcbZ_CeA-51">
          <mxGeometry relative="1" as="geometry" />
        </mxCell>
        <mxCell id="KAjtmMF-kqCktcbZ_CeA-50" value="MainDoctor.cshtml" style="whiteSpace=wrap;html=1;fontSize=16;" vertex="1" parent="1">
          <mxGeometry x="351" y="-476" width="150" height="58" as="geometry" />
        </mxCell>
        <mxCell id="KAjtmMF-kqCktcbZ_CeA-51" value="UpdateAppointment.cshtml" style="whiteSpace=wrap;html=1;fontSize=16;" vertex="1" parent="1">
          <mxGeometry x="583" y="-494" width="217" height="56" as="geometry" />
        </mxCell>
        <mxCell id="KAjtmMF-kqCktcbZ_CeA-59" style="edgeStyle=none;curved=1;rounded=0;orthogonalLoop=1;jettySize=auto;html=1;exitX=0.75;exitY=1;exitDx=0;exitDy=0;fontSize=12;startSize=8;endSize=8;" edge="1" parent="1" source="KAjtmMF-kqCktcbZ_CeA-55" target="KAjtmMF-kqCktcbZ_CeA-3">
          <mxGeometry relative="1" as="geometry" />
        </mxCell>
        <mxCell id="KAjtmMF-kqCktcbZ_CeA-55" value="Reg.cshtml" style="rounded=0;whiteSpace=wrap;html=1;fontSize=16;" vertex="1" parent="1">
          <mxGeometry x="121" y="-596" width="176" height="56" as="geometry" />
        </mxCell>
        <mxCell id="KAjtmMF-kqCktcbZ_CeA-66" style="edgeStyle=none;curved=1;rounded=0;orthogonalLoop=1;jettySize=auto;html=1;exitX=0.5;exitY=1;exitDx=0;exitDy=0;fontSize=12;startSize=8;endSize=8;" edge="1" parent="1" source="KAjtmMF-kqCktcbZ_CeA-62" target="KAjtmMF-kqCktcbZ_CeA-63">
          <mxGeometry relative="1" as="geometry" />
        </mxCell>
        <mxCell id="KAjtmMF-kqCktcbZ_CeA-70" style="edgeStyle=none;curved=1;rounded=0;orthogonalLoop=1;jettySize=auto;html=1;exitX=0.5;exitY=1;exitDx=0;exitDy=0;fontSize=12;startSize=8;endSize=8;" edge="1" parent="1" source="KAjtmMF-kqCktcbZ_CeA-62" target="KAjtmMF-kqCktcbZ_CeA-69">
          <mxGeometry relative="1" as="geometry" />
        </mxCell>
        <mxCell id="KAjtmMF-kqCktcbZ_CeA-83" style="edgeStyle=none;shape=connector;rounded=0;orthogonalLoop=1;jettySize=auto;html=1;exitX=0.5;exitY=1;exitDx=0;exitDy=0;labelBackgroundColor=default;strokeColor=default;align=center;verticalAlign=middle;fontFamily=Helvetica;fontSize=12;fontColor=default;endArrow=classic;startSize=8;endSize=8;" edge="1" parent="1" source="KAjtmMF-kqCktcbZ_CeA-62" target="KAjtmMF-kqCktcbZ_CeA-82">
          <mxGeometry relative="1" as="geometry" />
        </mxCell>
        <mxCell id="KAjtmMF-kqCktcbZ_CeA-91" style="edgeStyle=none;shape=connector;rounded=0;orthogonalLoop=1;jettySize=auto;html=1;exitX=1;exitY=0.5;exitDx=0;exitDy=0;labelBackgroundColor=default;strokeColor=default;align=center;verticalAlign=middle;fontFamily=Helvetica;fontSize=12;fontColor=default;endArrow=classic;startSize=8;endSize=8;" edge="1" parent="1" source="KAjtmMF-kqCktcbZ_CeA-62" target="KAjtmMF-kqCktcbZ_CeA-90">
          <mxGeometry relative="1" as="geometry" />
        </mxCell>
        <mxCell id="KAjtmMF-kqCktcbZ_CeA-62" value="Веб-приложение" style="whiteSpace=wrap;html=1;fontSize=16;" vertex="1" parent="1">
          <mxGeometry x="-406" y="296" width="150" height="58" as="geometry" />
        </mxCell>
        <mxCell id="KAjtmMF-kqCktcbZ_CeA-67" style="edgeStyle=none;rounded=0;orthogonalLoop=1;jettySize=auto;html=1;exitX=0.5;exitY=1;exitDx=0;exitDy=0;fontSize=12;startSize=8;endSize=8;" edge="1" parent="1" source="KAjtmMF-kqCktcbZ_CeA-63" target="KAjtmMF-kqCktcbZ_CeA-65">
          <mxGeometry relative="1" as="geometry">
            <mxPoint x="-542" y="598.3334350585938" as="targetPoint" />
          </mxGeometry>
        </mxCell>
        <mxCell id="KAjtmMF-kqCktcbZ_CeA-68" style="edgeStyle=none;curved=1;rounded=0;orthogonalLoop=1;jettySize=auto;html=1;exitX=0.5;exitY=1;exitDx=0;exitDy=0;entryX=0.88;entryY=-0.075;entryDx=0;entryDy=0;fontSize=12;startSize=8;endSize=8;entryPerimeter=0;" edge="1" parent="1" source="KAjtmMF-kqCktcbZ_CeA-63" target="KAjtmMF-kqCktcbZ_CeA-64">
          <mxGeometry relative="1" as="geometry" />
        </mxCell>
        <mxCell id="KAjtmMF-kqCktcbZ_CeA-63" value="Окно авторизации и регистрации" style="whiteSpace=wrap;html=1;fontSize=16;" vertex="1" parent="1">
          <mxGeometry x="-617" y="447" width="150" height="58" as="geometry" />
        </mxCell>
        <mxCell id="KAjtmMF-kqCktcbZ_CeA-64" value="Переход на страницу роли" style="whiteSpace=wrap;html=1;fontSize=16;" vertex="1" parent="1">
          <mxGeometry x="-786" y="636" width="150" height="58" as="geometry" />
        </mxCell>
        <mxCell id="KAjtmMF-kqCktcbZ_CeA-65" value="Авторизация пользователя" style="whiteSpace=wrap;html=1;fontSize=16;" vertex="1" parent="1">
          <mxGeometry x="-803" y="534" width="150" height="58" as="geometry" />
        </mxCell>
        <mxCell id="KAjtmMF-kqCktcbZ_CeA-72" style="edgeStyle=none;curved=1;rounded=0;orthogonalLoop=1;jettySize=auto;html=1;exitX=0.5;exitY=1;exitDx=0;exitDy=0;fontSize=12;startSize=8;endSize=8;" edge="1" parent="1" source="KAjtmMF-kqCktcbZ_CeA-69" target="KAjtmMF-kqCktcbZ_CeA-71">
          <mxGeometry relative="1" as="geometry" />
        </mxCell>
        <mxCell id="KAjtmMF-kqCktcbZ_CeA-78" style="edgeStyle=none;rounded=0;orthogonalLoop=1;jettySize=auto;html=1;exitX=0.5;exitY=1;exitDx=0;exitDy=0;fontSize=12;startSize=8;endSize=8;" edge="1" parent="1" source="KAjtmMF-kqCktcbZ_CeA-69" target="KAjtmMF-kqCktcbZ_CeA-77">
          <mxGeometry relative="1" as="geometry" />
        </mxCell>
        <mxCell id="KAjtmMF-kqCktcbZ_CeA-69" value="Главное окно пациента" style="whiteSpace=wrap;html=1;fontSize=16;" vertex="1" parent="1">
          <mxGeometry x="-404" y="456" width="150" height="58" as="geometry" />
        </mxCell>
        <mxCell id="KAjtmMF-kqCktcbZ_CeA-74" style="edgeStyle=none;rounded=0;orthogonalLoop=1;jettySize=auto;html=1;exitX=0.5;exitY=1;exitDx=0;exitDy=0;entryX=0;entryY=0.5;entryDx=0;entryDy=0;fontSize=12;startSize=8;endSize=8;" edge="1" parent="1" source="KAjtmMF-kqCktcbZ_CeA-71" target="KAjtmMF-kqCktcbZ_CeA-73">
          <mxGeometry relative="1" as="geometry">
            <Array as="points">
              <mxPoint x="-181" y="705" />
            </Array>
          </mxGeometry>
        </mxCell>
        <mxCell id="KAjtmMF-kqCktcbZ_CeA-71" value="Окно записи на приём" style="whiteSpace=wrap;html=1;fontSize=16;" vertex="1" parent="1">
          <mxGeometry x="-256" y="570" width="150" height="58" as="geometry" />
        </mxCell>
        <mxCell id="KAjtmMF-kqCktcbZ_CeA-73" value="Вывод услуг, врачей, дат" style="whiteSpace=wrap;html=1;fontSize=16;" vertex="1" parent="1">
          <mxGeometry x="-129" y="676" width="150" height="58" as="geometry" />
        </mxCell>
        <mxCell id="KAjtmMF-kqCktcbZ_CeA-75" style="edgeStyle=none;rounded=0;orthogonalLoop=1;jettySize=auto;html=1;entryX=0;entryY=0.5;entryDx=0;entryDy=0;fontSize=12;startSize=8;endSize=8;" edge="1" parent="1" target="KAjtmMF-kqCktcbZ_CeA-76">
          <mxGeometry relative="1" as="geometry">
            <mxPoint x="-181" y="631" as="sourcePoint" />
            <Array as="points">
              <mxPoint x="-174" y="797" />
            </Array>
          </mxGeometry>
        </mxCell>
        <mxCell id="KAjtmMF-kqCktcbZ_CeA-76" value="Добавление записи" style="whiteSpace=wrap;html=1;fontSize=16;" vertex="1" parent="1">
          <mxGeometry x="-122" y="768" width="150" height="58" as="geometry" />
        </mxCell>
        <mxCell id="KAjtmMF-kqCktcbZ_CeA-81" style="edgeStyle=none;shape=connector;rounded=0;orthogonalLoop=1;jettySize=auto;html=1;exitX=0.5;exitY=1;exitDx=0;exitDy=0;labelBackgroundColor=default;strokeColor=default;align=center;verticalAlign=middle;fontFamily=Helvetica;fontSize=12;fontColor=default;endArrow=classic;startSize=8;endSize=8;" edge="1" parent="1" source="KAjtmMF-kqCktcbZ_CeA-77" target="KAjtmMF-kqCktcbZ_CeA-80">
          <mxGeometry relative="1" as="geometry" />
        </mxCell>
        <mxCell id="KAjtmMF-kqCktcbZ_CeA-77" value="Окно услуг" style="whiteSpace=wrap;html=1;fontSize=16;" vertex="1" parent="1">
          <mxGeometry x="-455" y="592" width="150" height="58" as="geometry" />
        </mxCell>
        <mxCell id="KAjtmMF-kqCktcbZ_CeA-80" value="Вывод списка услуг" style="whiteSpace=wrap;html=1;fontSize=16;" vertex="1" parent="1">
          <mxGeometry x="-492" y="689" width="150" height="58" as="geometry" />
        </mxCell>
        <mxCell id="KAjtmMF-kqCktcbZ_CeA-85" style="edgeStyle=none;shape=connector;rounded=0;orthogonalLoop=1;jettySize=auto;html=1;exitX=0.75;exitY=1;exitDx=0;exitDy=0;labelBackgroundColor=default;strokeColor=default;align=center;verticalAlign=middle;fontFamily=Helvetica;fontSize=12;fontColor=default;endArrow=classic;startSize=8;endSize=8;" edge="1" parent="1" source="KAjtmMF-kqCktcbZ_CeA-82" target="KAjtmMF-kqCktcbZ_CeA-84">
          <mxGeometry relative="1" as="geometry" />
        </mxCell>
        <mxCell id="KAjtmMF-kqCktcbZ_CeA-87" style="edgeStyle=none;shape=connector;rounded=0;orthogonalLoop=1;jettySize=auto;html=1;exitX=1;exitY=0.25;exitDx=0;exitDy=0;labelBackgroundColor=default;strokeColor=default;align=center;verticalAlign=middle;fontFamily=Helvetica;fontSize=12;fontColor=default;endArrow=classic;startSize=8;endSize=8;" edge="1" parent="1" source="KAjtmMF-kqCktcbZ_CeA-82" target="KAjtmMF-kqCktcbZ_CeA-86">
          <mxGeometry relative="1" as="geometry" />
        </mxCell>
        <mxCell id="KAjtmMF-kqCktcbZ_CeA-82" value="Главное окно врача" style="whiteSpace=wrap;html=1;fontSize=16;" vertex="1" parent="1">
          <mxGeometry x="-129" y="450" width="150" height="58" as="geometry" />
        </mxCell>
        <mxCell id="KAjtmMF-kqCktcbZ_CeA-84" value="Вывод списка истории болезней" style="whiteSpace=wrap;html=1;fontSize=16;" vertex="1" parent="1">
          <mxGeometry x="80" y="543" width="150" height="58" as="geometry" />
        </mxCell>
        <mxCell id="KAjtmMF-kqCktcbZ_CeA-89" style="edgeStyle=none;shape=connector;rounded=0;orthogonalLoop=1;jettySize=auto;html=1;exitX=1;exitY=0.5;exitDx=0;exitDy=0;labelBackgroundColor=default;strokeColor=default;align=center;verticalAlign=middle;fontFamily=Helvetica;fontSize=12;fontColor=default;endArrow=classic;startSize=8;endSize=8;" edge="1" parent="1" source="KAjtmMF-kqCktcbZ_CeA-86" target="KAjtmMF-kqCktcbZ_CeA-88">
          <mxGeometry relative="1" as="geometry" />
        </mxCell>
        <mxCell id="KAjtmMF-kqCktcbZ_CeA-86" value="Окно редактирования записи" style="whiteSpace=wrap;html=1;fontSize=16;" vertex="1" parent="1">
          <mxGeometry x="82" y="439" width="150" height="58" as="geometry" />
        </mxCell>
        <mxCell id="KAjtmMF-kqCktcbZ_CeA-88" value="Добавление записи в историю болезни" style="whiteSpace=wrap;html=1;fontSize=16;" vertex="1" parent="1">
          <mxGeometry x="300" y="439" width="150" height="58" as="geometry" />
        </mxCell>
        <mxCell id="KAjtmMF-kqCktcbZ_CeA-94" style="edgeStyle=none;shape=connector;rounded=0;orthogonalLoop=1;jettySize=auto;html=1;exitX=1;exitY=0.5;exitDx=0;exitDy=0;labelBackgroundColor=default;strokeColor=default;align=center;verticalAlign=middle;fontFamily=Helvetica;fontSize=12;fontColor=default;endArrow=classic;startSize=8;endSize=8;" edge="1" parent="1" source="KAjtmMF-kqCktcbZ_CeA-90" target="KAjtmMF-kqCktcbZ_CeA-92">
          <mxGeometry relative="1" as="geometry" />
        </mxCell>
        <mxCell id="KAjtmMF-kqCktcbZ_CeA-96" style="edgeStyle=none;shape=connector;rounded=0;orthogonalLoop=1;jettySize=auto;html=1;exitX=0.5;exitY=0;exitDx=0;exitDy=0;entryX=0.5;entryY=1;entryDx=0;entryDy=0;labelBackgroundColor=default;strokeColor=default;align=center;verticalAlign=middle;fontFamily=Helvetica;fontSize=12;fontColor=default;endArrow=classic;startSize=8;endSize=8;" edge="1" parent="1" source="KAjtmMF-kqCktcbZ_CeA-90" target="KAjtmMF-kqCktcbZ_CeA-95">
          <mxGeometry relative="1" as="geometry" />
        </mxCell>
        <mxCell id="KAjtmMF-kqCktcbZ_CeA-103" style="edgeStyle=none;shape=connector;rounded=0;orthogonalLoop=1;jettySize=auto;html=1;exitX=0.5;exitY=1;exitDx=0;exitDy=0;labelBackgroundColor=default;strokeColor=default;align=center;verticalAlign=middle;fontFamily=Helvetica;fontSize=12;fontColor=default;endArrow=classic;startSize=8;endSize=8;" edge="1" parent="1" source="KAjtmMF-kqCktcbZ_CeA-90" target="KAjtmMF-kqCktcbZ_CeA-100">
          <mxGeometry relative="1" as="geometry" />
        </mxCell>
        <mxCell id="KAjtmMF-kqCktcbZ_CeA-90" value="Главное окно администратора" style="whiteSpace=wrap;html=1;fontSize=16;" vertex="1" parent="1">
          <mxGeometry x="-143" y="292" width="150" height="58" as="geometry" />
        </mxCell>
        <mxCell id="KAjtmMF-kqCktcbZ_CeA-92" value="Вывод списка услуг" style="whiteSpace=wrap;html=1;fontSize=16;" vertex="1" parent="1">
          <mxGeometry x="71" y="245" width="150" height="58" as="geometry" />
        </mxCell>
        <mxCell id="KAjtmMF-kqCktcbZ_CeA-93" value="Вывод списка дат приёмов" style="whiteSpace=wrap;html=1;fontSize=16;" vertex="1" parent="1">
          <mxGeometry x="-152" y="91" width="150" height="58" as="geometry" />
        </mxCell>
        <mxCell id="KAjtmMF-kqCktcbZ_CeA-97" style="edgeStyle=none;shape=connector;rounded=0;orthogonalLoop=1;jettySize=auto;html=1;exitX=0.5;exitY=0;exitDx=0;exitDy=0;entryX=0.5;entryY=1;entryDx=0;entryDy=0;labelBackgroundColor=default;strokeColor=default;align=center;verticalAlign=middle;fontFamily=Helvetica;fontSize=12;fontColor=default;endArrow=classic;startSize=8;endSize=8;" edge="1" parent="1" source="KAjtmMF-kqCktcbZ_CeA-95" target="KAjtmMF-kqCktcbZ_CeA-93">
          <mxGeometry relative="1" as="geometry" />
        </mxCell>
        <mxCell id="KAjtmMF-kqCktcbZ_CeA-102" style="edgeStyle=none;shape=connector;rounded=0;orthogonalLoop=1;jettySize=auto;html=1;exitX=1;exitY=0.5;exitDx=0;exitDy=0;entryX=0;entryY=0.5;entryDx=0;entryDy=0;labelBackgroundColor=default;strokeColor=default;align=center;verticalAlign=middle;fontFamily=Helvetica;fontSize=12;fontColor=default;endArrow=classic;startSize=8;endSize=8;" edge="1" parent="1" source="KAjtmMF-kqCktcbZ_CeA-95" target="KAjtmMF-kqCktcbZ_CeA-98">
          <mxGeometry relative="1" as="geometry" />
        </mxCell>
        <mxCell id="KAjtmMF-kqCktcbZ_CeA-107" style="edgeStyle=none;shape=connector;rounded=0;orthogonalLoop=1;jettySize=auto;html=1;exitX=0;exitY=0.5;exitDx=0;exitDy=0;entryX=1;entryY=0.5;entryDx=0;entryDy=0;labelBackgroundColor=default;strokeColor=default;align=center;verticalAlign=middle;fontFamily=Helvetica;fontSize=12;fontColor=default;endArrow=classic;startSize=8;endSize=8;" edge="1" parent="1" source="KAjtmMF-kqCktcbZ_CeA-95" target="KAjtmMF-kqCktcbZ_CeA-106">
          <mxGeometry relative="1" as="geometry" />
        </mxCell>
        <mxCell id="KAjtmMF-kqCktcbZ_CeA-95" value="Окно дат приёмов" style="whiteSpace=wrap;html=1;fontSize=16;" vertex="1" parent="1">
          <mxGeometry x="-148" y="182" width="150" height="58" as="geometry" />
        </mxCell>
        <mxCell id="KAjtmMF-kqCktcbZ_CeA-98" value="Окно редактирования дат приёмов" style="whiteSpace=wrap;html=1;fontSize=16;" vertex="1" parent="1">
          <mxGeometry x="71" y="164" width="150" height="58" as="geometry" />
        </mxCell>
        <mxCell id="KAjtmMF-kqCktcbZ_CeA-105" style="edgeStyle=none;shape=connector;rounded=0;orthogonalLoop=1;jettySize=auto;html=1;exitX=1;exitY=0.5;exitDx=0;exitDy=0;labelBackgroundColor=default;strokeColor=default;align=center;verticalAlign=middle;fontFamily=Helvetica;fontSize=12;fontColor=default;endArrow=classic;startSize=8;endSize=8;" edge="1" parent="1" source="KAjtmMF-kqCktcbZ_CeA-100" target="KAjtmMF-kqCktcbZ_CeA-104">
          <mxGeometry relative="1" as="geometry" />
        </mxCell>
        <mxCell id="KAjtmMF-kqCktcbZ_CeA-100" value="Окно редактирования услуг" style="whiteSpace=wrap;html=1;fontSize=16;" vertex="1" parent="1">
          <mxGeometry x="85" y="335" width="150" height="58" as="geometry" />
        </mxCell>
        <mxCell id="KAjtmMF-kqCktcbZ_CeA-104" value="Изменение и добавление услуги" style="whiteSpace=wrap;html=1;fontSize=16;" vertex="1" parent="1">
          <mxGeometry x="300" y="335" width="150" height="58" as="geometry" />
        </mxCell>
        <mxCell id="KAjtmMF-kqCktcbZ_CeA-106" value="Изменение и добавление дат приёмов" style="whiteSpace=wrap;html=1;fontSize=16;" vertex="1" parent="1">
          <mxGeometry x="-379" y="170" width="150" height="58" as="geometry" />
        </mxCell>
      </root>
    </mxGraphModel>
  </diagram>
</mxfile>
